<svg viewBox="-16 -32 880 192" width="880" height="192" xmlns="http://www.w3.org/2000/svg"><desc>Generated with https://github.com/Platane/snk</desc><style>@keyframes c0{64.62%{fill:var(--c3)}64.64%,to{fill:var(--ce)}}@keyframes c1{7.71%{fill:var(--c1)}7.73%,to{fill:var(--ce)}}@keyframes c2{65.58%{fill:var(--c4)}65.6%,to{fill:var(--ce)}}@keyframes c3{64.94%{fill:var(--c4)}64.96%,to{fill:var(--ce)}}@keyframes c4{66.55%{fill:var(--c4)}66.57%,to{fill:var(--ce)}}@keyframes c5{6.74%{fill:var(--c1)}6.76%,to{fill:var(--ce)}}@keyframes c6{3.85%{fill:var(--c1)}3.87%,to{fill:var(--ce)}}@keyframes c7{5.78%{fill:var(--c1)}5.8%,to{fill:var(--ce)}}@keyframes c8{6.42%{fill:var(--c1)}6.44%,to{fill:var(--ce)}}@keyframes c9{61.73%{fill:var(--c3)}61.75%,to{fill:var(--ce)}}@keyframes ca{5.46%{fill:var(--c1)}5.48%,to{fill:var(--ce)}}@keyframes cb{60.12%{fill:var(--c2)}60.14%,to{fill:var(--ce)}}@keyframes cc{59.8%{fill:var(--c2)}59.82%,to{fill:var(--ce)}}@keyframes cd{4.49%{fill:var(--c1)}4.51%,to{fill:var(--ce)}}@keyframes ce{4.81%{fill:var(--c1)}4.83%,to{fill:var(--ce)}}@keyframes cf{5.13%{fill:var(--c1)}5.15%,to{fill:var(--ce)}}@keyframes cg{15.42%{fill:var(--c1)}15.44%,to{fill:var(--ce)}}@keyframes ch{10.92%{fill:var(--c1)}10.94%,to{fill:var(--ce)}}@keyframes ci{10.28%{fill:var(--c1)}10.3%,to{fill:var(--ce)}}@keyframes cj{13.17%{fill:var(--c1)}13.19%,to{fill:var(--ce)}}@keyframes ck{11.57%{fill:var(--c1)}11.59%,to{fill:var(--ce)}}@keyframes cl{68.48%{fill:var(--c4)}68.5%,to{fill:var(--ce)}}@keyframes cm{12.21%{fill:var(--c1)}12.23%,to{fill:var(--ce)}}@keyframes cn{57.22%{fill:var(--c2)}57.24%,to{fill:var(--ce)}}@keyframes co{19.6%{fill:var(--c1)}19.62%,to{fill:var(--ce)}}@keyframes cp{19.28%{fill:var(--c1)}19.3%,to{fill:var(--ce)}}@keyframes cq{18.64%{fill:var(--c1)}18.66%,to{fill:var(--ce)}}@keyframes cr{54.01%{fill:var(--c2)}54.03%,to{fill:var(--ce)}}@keyframes cs{22.82%{fill:var(--c1)}22.84%,to{fill:var(--ce)}}@keyframes ct{50.79%{fill:var(--c2)}50.81%,to{fill:var(--ce)}}@keyframes cu{75.87%{fill:var(--c4)}75.89%,to{fill:var(--ce)}}@keyframes cv{28.61%{fill:var(--c1)}28.63%,to{fill:var(--ce)}}@keyframes cw{24.75%{fill:var(--c1)}24.77%,to{fill:var(--ce)}}@keyframes cx{74.59%{fill:var(--c4)}74.61%,to{fill:var(--ce)}}@keyframes cy{27.32%{fill:var(--c1)}27.34%,to{fill:var(--ce)}}@keyframes cz{30.22%{fill:var(--c1)}30.24%,to{fill:var(--ce)}}@keyframes c10{25.71%{fill:var(--c1)}25.73%,to{fill:var(--ce)}}@keyframes c11{48.54%{fill:var(--c2)}48.56%,to{fill:var(--ce)}}@keyframes c12{46.61%{fill:var(--c2)}46.63%,to{fill:var(--ce)}}@keyframes c13{32.14%{fill:var(--c1)}32.16%,to{fill:var(--ce)}}@keyframes c14{31.82%{fill:var(--c1)}31.84%,to{fill:var(--ce)}}@keyframes c15{34.07%{fill:var(--c1)}34.09%,to{fill:var(--ce)}}@keyframes c16{33.43%{fill:var(--c1)}33.45%,to{fill:var(--ce)}}@keyframes c17{43.4%{fill:var(--c2)}43.42%,to{fill:var(--ce)}}@keyframes c18{82.31%{fill:var(--c4)}82.33%,to{fill:var(--ce)}}@keyframes c19{81.98%{fill:var(--c4)}82%,to{fill:var(--ce)}}@keyframes c1a{38.58%{fill:var(--c1)}38.6%,to{fill:var(--ce)}}@keyframes c1b{42.11%{fill:var(--c2)}42.13%,to{fill:var(--ce)}}@keyframes c1c{39.86%{fill:var(--c2)}39.88%,to{fill:var(--ce)}}@keyframes c1d{39.54%{fill:var(--c1)}39.56%,to{fill:var(--ce)}}@keyframes c1e{39.22%{fill:var(--c1)}39.24%,to{fill:var(--ce)}}@keyframes u0{3.85%{transform:scale(0,1)}3.87%,4.49%{transform:scale(.03,1)}4.51%,4.81%{transform:scale(.06,1)}4.83%,5.13%{transform:scale(.1,1)}5.15%,5.46%{transform:scale(.13,1)}5.48%,5.78%{transform:scale(.16,1)}5.8%,6.42%{transform:scale(.19,1)}6.44%,6.74%{transform:scale(.23,1)}6.76%,7.71%{transform:scale(.26,1)}10.28%,7.73%{transform:scale(.29,1)}10.3%,10.92%{transform:scale(.32,1)}10.94%,11.57%{transform:scale(.35,1)}11.59%,12.21%{transform:scale(.39,1)}12.23%,13.17%{transform:scale(.42,1)}13.19%,15.42%{transform:scale(.45,1)}15.44%,18.64%{transform:scale(.48,1)}18.66%,19.28%{transform:scale(.52,1)}19.3%,19.6%{transform:scale(.55,1)}19.62%,22.82%{transform:scale(.58,1)}22.84%,24.75%{transform:scale(.61,1)}24.77%,25.71%{transform:scale(.65,1)}25.73%,27.32%{transform:scale(.68,1)}27.34%,28.61%{transform:scale(.71,1)}28.63%,30.22%{transform:scale(.74,1)}30.24%,31.82%{transform:scale(.77,1)}31.84%,32.14%{transform:scale(.81,1)}32.16%,33.43%{transform:scale(.84,1)}33.45%,34.07%{transform:scale(.87,1)}34.09%,38.58%{transform:scale(.9,1)}38.6%,39.22%{transform:scale(.94,1)}39.24%,39.54%{transform:scale(.97,1)}39.56%,to{transform:scale(1,1)}}@keyframes u1{39.86%{transform:scale(0,1)}39.88%,42.11%{transform:scale(.1,1)}42.13%,43.4%{transform:scale(.2,1)}43.42%,46.61%{transform:scale(.3,1)}46.63%,48.54%{transform:scale(.4,1)}48.56%,50.79%{transform:scale(.5,1)}50.81%,54.01%{transform:scale(.6,1)}54.03%,57.22%{transform:scale(.7,1)}57.24%,59.8%{transform:scale(.8,1)}59.82%,60.12%{transform:scale(.9,1)}60.14%,to{transform:scale(1,1)}}@keyframes u2{61.73%{transform:scale(0,1)}61.75%,64.62%{transform:scale(.5,1)}64.64%,to{transform:scale(1,1)}}@keyframes u3{64.94%{transform:scale(0,1)}64.96%,65.58%{transform:scale(.13,1)}65.6%,66.55%{transform:scale(.25,1)}66.57%,68.48%{transform:scale(.38,1)}68.5%,74.59%{transform:scale(.5,1)}74.61%,75.87%{transform:scale(.63,1)}75.89%,81.98%{transform:scale(.75,1)}82%,82.31%{transform:scale(.88,1)}82.33%,to{transform:scale(1,1)}}@keyframes s0{0%,99.68%{transform:translate(0,-16px)}.32%{transform:translate(0,0)}3.54%{transform:translate(160px,0)}3.86%{transform:translate(160px,16px)}4.5%{transform:translate(192px,16px)}5.14%{transform:translate(192px,48px)}5.79%{transform:translate(160px,48px)}6.43%{transform:translate(160px,80px)}6.75%{transform:translate(144px,80px)}7.07%{transform:translate(144px,96px)}7.72%{transform:translate(112px,96px)}8.04%{transform:translate(112px,112px)}9.97%{transform:translate(208px,112px)}10.93%{transform:translate(208px,64px)}11.25%{transform:translate(224px,64px)}11.58%{transform:translate(224px,48px)}11.9%{transform:translate(240px,48px)}12.22%{transform:translate(240px,32px)}12.54%{transform:translate(224px,32px)}13.18%{transform:translate(224px,0)}13.83%{transform:translate(192px,0)}15.43%{transform:translate(192px,80px)}18.65%{transform:translate(352px,80px)}18.97%{transform:translate(352px,64px)}19.29%{transform:translate(336px,64px)}19.61%{transform:translate(336px,48px)}22.19%{transform:translate(464px,48px)}22.83%{transform:translate(464px,16px)}24.12%{transform:translate(528px,16px)}24.44%{transform:translate(528px,0)}25.72%{transform:translate(592px,0)}26.05%{transform:translate(592px,16px)}26.69%{transform:translate(560px,16px)}27.01%{transform:translate(560px,32px)}27.65%{transform:translate(528px,32px)}28.3%{transform:translate(528px,64px)}28.62%{transform:translate(512px,64px)}28.94%{transform:translate(512px,80px)}30.23%{transform:translate(576px,80px)}30.55%{transform:translate(576px,64px)}31.83%,34.41%{transform:translate(640px,64px)}32.15%{transform:translate(640px,48px)}32.8%{transform:translate(672px,48px)}33.44%{transform:translate(672px,80px)}34.08%{transform:translate(640px,80px)}36.66%{transform:translate(752px,64px)}36.98%{transform:translate(752px,48px)}37.94%{transform:translate(800px,48px)}38.26%,42.77%{transform:translate(800px,64px)}38.91%,41.48%{transform:translate(832px,64px)}39.87%{transform:translate(832px,16px)}40.19%{transform:translate(848px,16px)}40.51%{transform:translate(848px,32px)}40.84%{transform:translate(832px,32px)}41.8%{transform:translate(816px,64px)}42.12%{transform:translate(816px,80px)}42.44%{transform:translate(800px,80px)}43.41%{transform:translate(768px,64px)}44.05%{transform:translate(768px,32px)}47.59%{transform:translate(592px,32px)}48.55%{transform:translate(592px,80px)}50.8%{transform:translate(480px,80px)}52.09%{transform:translate(480px,16px)}55.63%{transform:translate(304px,16px)}57.23%{transform:translate(304px,96px)}59.81%{transform:translate(176px,96px)}61.74%{transform:translate(176px,0)}63.02%{transform:translate(112px,0)}64.63%{transform:translate(112px,80px)}64.95%{transform:translate(128px,80px)}65.59%{transform:translate(128px,48px)}65.92%{transform:translate(144px,48px)}66.56%{transform:translate(144px,16px)}74.6%{transform:translate(544px,16px)}74.92%{transform:translate(544px,32px)}75.56%{transform:translate(512px,32px)}75.88%{transform:translate(512px,48px)}81.99%{transform:translate(816px,48px)}82.32%{transform:translate(816px,32px)}96.78%{transform:translate(96px,32px)}97.11%{transform:translate(96px,16px)}97.43%{transform:translate(80px,16px)}98.07%{transform:translate(80px,-16px)}}@keyframes s1{0%,99.68%{transform:translate(16px,-16px)}.32%{transform:translate(0,-16px)}.64%{transform:translate(0,0)}3.86%{transform:translate(160px,0)}4.18%{transform:translate(160px,16px)}4.82%{transform:translate(192px,16px)}5.47%{transform:translate(192px,48px)}6.11%{transform:translate(160px,48px)}6.75%{transform:translate(160px,80px)}7.07%{transform:translate(144px,80px)}7.4%{transform:translate(144px,96px)}8.04%{transform:translate(112px,96px)}8.36%{transform:translate(112px,112px)}10.29%{transform:translate(208px,112px)}11.25%{transform:translate(208px,64px)}11.58%{transform:translate(224px,64px)}11.9%{transform:translate(224px,48px)}12.22%{transform:translate(240px,48px)}12.54%{transform:translate(240px,32px)}12.86%{transform:translate(224px,32px)}13.5%{transform:translate(224px,0)}14.15%{transform:translate(192px,0)}15.76%{transform:translate(192px,80px)}18.97%{transform:translate(352px,80px)}19.29%{transform:translate(352px,64px)}19.61%{transform:translate(336px,64px)}19.94%{transform:translate(336px,48px)}22.51%{transform:translate(464px,48px)}23.15%{transform:translate(464px,16px)}24.44%{transform:translate(528px,16px)}24.76%{transform:translate(528px,0)}26.05%{transform:translate(592px,0)}26.37%{transform:translate(592px,16px)}27.01%{transform:translate(560px,16px)}27.33%{transform:translate(560px,32px)}27.97%{transform:translate(528px,32px)}28.62%{transform:translate(528px,64px)}28.94%{transform:translate(512px,64px)}29.26%{transform:translate(512px,80px)}30.55%{transform:translate(576px,80px)}30.87%{transform:translate(576px,64px)}32.15%,34.73%{transform:translate(640px,64px)}32.48%{transform:translate(640px,48px)}33.12%{transform:translate(672px,48px)}33.76%{transform:translate(672px,80px)}34.41%{transform:translate(640px,80px)}36.98%{transform:translate(752px,64px)}37.3%{transform:translate(752px,48px)}38.26%{transform:translate(800px,48px)}38.59%,43.09%{transform:translate(800px,64px)}39.23%,41.8%{transform:translate(832px,64px)}40.19%{transform:translate(832px,16px)}40.51%{transform:translate(848px,16px)}40.84%{transform:translate(848px,32px)}41.16%{transform:translate(832px,32px)}42.12%{transform:translate(816px,64px)}42.44%{transform:translate(816px,80px)}42.77%{transform:translate(800px,80px)}43.73%{transform:translate(768px,64px)}44.37%{transform:translate(768px,32px)}47.91%{transform:translate(592px,32px)}48.87%{transform:translate(592px,80px)}51.13%{transform:translate(480px,80px)}52.41%{transform:translate(480px,16px)}55.95%{transform:translate(304px,16px)}57.56%{transform:translate(304px,96px)}60.13%{transform:translate(176px,96px)}62.06%{transform:translate(176px,0)}63.34%{transform:translate(112px,0)}64.95%{transform:translate(112px,80px)}65.27%{transform:translate(128px,80px)}65.92%{transform:translate(128px,48px)}66.24%{transform:translate(144px,48px)}66.88%{transform:translate(144px,16px)}74.92%{transform:translate(544px,16px)}75.24%{transform:translate(544px,32px)}75.88%{transform:translate(512px,32px)}76.21%{transform:translate(512px,48px)}82.32%{transform:translate(816px,48px)}82.64%{transform:translate(816px,32px)}97.11%{transform:translate(96px,32px)}97.43%{transform:translate(96px,16px)}97.75%{transform:translate(80px,16px)}98.39%{transform:translate(80px,-16px)}}@keyframes s2{0%,99.68%{transform:translate(32px,-16px)}.64%{transform:translate(0,-16px)}.96%{transform:translate(0,0)}4.18%{transform:translate(160px,0)}4.5%{transform:translate(160px,16px)}5.14%{transform:translate(192px,16px)}5.79%{transform:translate(192px,48px)}6.43%{transform:translate(160px,48px)}7.07%{transform:translate(160px,80px)}7.4%{transform:translate(144px,80px)}7.72%{transform:translate(144px,96px)}8.36%{transform:translate(112px,96px)}8.68%{transform:translate(112px,112px)}10.61%{transform:translate(208px,112px)}11.58%{transform:translate(208px,64px)}11.9%{transform:translate(224px,64px)}12.22%{transform:translate(224px,48px)}12.54%{transform:translate(240px,48px)}12.86%{transform:translate(240px,32px)}13.18%{transform:translate(224px,32px)}13.83%{transform:translate(224px,0)}14.47%{transform:translate(192px,0)}16.08%{transform:translate(192px,80px)}19.29%{transform:translate(352px,80px)}19.61%{transform:translate(352px,64px)}19.94%{transform:translate(336px,64px)}20.26%{transform:translate(336px,48px)}22.83%{transform:translate(464px,48px)}23.47%{transform:translate(464px,16px)}24.76%{transform:translate(528px,16px)}25.08%{transform:translate(528px,0)}26.37%{transform:translate(592px,0)}26.69%{transform:translate(592px,16px)}27.33%{transform:translate(560px,16px)}27.65%{transform:translate(560px,32px)}28.3%{transform:translate(528px,32px)}28.94%{transform:translate(528px,64px)}29.26%{transform:translate(512px,64px)}29.58%{transform:translate(512px,80px)}30.87%{transform:translate(576px,80px)}31.19%{transform:translate(576px,64px)}32.48%,35.05%{transform:translate(640px,64px)}32.8%{transform:translate(640px,48px)}33.44%{transform:translate(672px,48px)}34.08%{transform:translate(672px,80px)}34.73%{transform:translate(640px,80px)}37.3%{transform:translate(752px,64px)}37.62%{transform:translate(752px,48px)}38.59%{transform:translate(800px,48px)}38.91%,43.41%{transform:translate(800px,64px)}39.55%,42.12%{transform:translate(832px,64px)}40.51%{transform:translate(832px,16px)}40.84%{transform:translate(848px,16px)}41.16%{transform:translate(848px,32px)}41.48%{transform:translate(832px,32px)}42.44%{transform:translate(816px,64px)}42.77%{transform:translate(816px,80px)}43.09%{transform:translate(800px,80px)}44.05%{transform:translate(768px,64px)}44.69%{transform:translate(768px,32px)}48.23%{transform:translate(592px,32px)}49.2%{transform:translate(592px,80px)}51.45%{transform:translate(480px,80px)}52.73%{transform:translate(480px,16px)}56.27%{transform:translate(304px,16px)}57.88%{transform:translate(304px,96px)}60.45%{transform:translate(176px,96px)}62.38%{transform:translate(176px,0)}63.67%{transform:translate(112px,0)}65.27%{transform:translate(112px,80px)}65.59%{transform:translate(128px,80px)}66.24%{transform:translate(128px,48px)}66.56%{transform:translate(144px,48px)}67.2%{transform:translate(144px,16px)}75.24%{transform:translate(544px,16px)}75.56%{transform:translate(544px,32px)}76.21%{transform:translate(512px,32px)}76.53%{transform:translate(512px,48px)}82.64%{transform:translate(816px,48px)}82.96%{transform:translate(816px,32px)}97.43%{transform:translate(96px,32px)}97.75%{transform:translate(96px,16px)}98.07%{transform:translate(80px,16px)}98.71%{transform:translate(80px,-16px)}}@keyframes s3{0%,99.68%{transform:translate(48px,-16px)}.96%{transform:translate(0,-16px)}1.29%{transform:translate(0,0)}4.5%{transform:translate(160px,0)}4.82%{transform:translate(160px,16px)}5.47%{transform:translate(192px,16px)}6.11%{transform:translate(192px,48px)}6.75%{transform:translate(160px,48px)}7.4%{transform:translate(160px,80px)}7.72%{transform:translate(144px,80px)}8.04%{transform:translate(144px,96px)}8.68%{transform:translate(112px,96px)}9%{transform:translate(112px,112px)}10.93%{transform:translate(208px,112px)}11.9%{transform:translate(208px,64px)}12.22%{transform:translate(224px,64px)}12.54%{transform:translate(224px,48px)}12.86%{transform:translate(240px,48px)}13.18%{transform:translate(240px,32px)}13.5%{transform:translate(224px,32px)}14.15%{transform:translate(224px,0)}14.79%{transform:translate(192px,0)}16.4%{transform:translate(192px,80px)}19.61%{transform:translate(352px,80px)}19.94%{transform:translate(352px,64px)}20.26%{transform:translate(336px,64px)}20.58%{transform:translate(336px,48px)}23.15%{transform:translate(464px,48px)}23.79%{transform:translate(464px,16px)}25.08%{transform:translate(528px,16px)}25.4%{transform:translate(528px,0)}26.69%{transform:translate(592px,0)}27.01%{transform:translate(592px,16px)}27.65%{transform:translate(560px,16px)}27.97%{transform:translate(560px,32px)}28.62%{transform:translate(528px,32px)}29.26%{transform:translate(528px,64px)}29.58%{transform:translate(512px,64px)}29.9%{transform:translate(512px,80px)}31.19%{transform:translate(576px,80px)}31.51%{transform:translate(576px,64px)}32.8%,35.37%{transform:translate(640px,64px)}33.12%{transform:translate(640px,48px)}33.76%{transform:translate(672px,48px)}34.41%{transform:translate(672px,80px)}35.05%{transform:translate(640px,80px)}37.62%{transform:translate(752px,64px)}37.94%{transform:translate(752px,48px)}38.91%{transform:translate(800px,48px)}39.23%,43.73%{transform:translate(800px,64px)}39.87%,42.44%{transform:translate(832px,64px)}40.84%{transform:translate(832px,16px)}41.16%{transform:translate(848px,16px)}41.48%{transform:translate(848px,32px)}41.8%{transform:translate(832px,32px)}42.77%{transform:translate(816px,64px)}43.09%{transform:translate(816px,80px)}43.41%{transform:translate(800px,80px)}44.37%{transform:translate(768px,64px)}45.02%{transform:translate(768px,32px)}48.55%{transform:translate(592px,32px)}49.52%{transform:translate(592px,80px)}51.77%{transform:translate(480px,80px)}53.05%{transform:translate(480px,16px)}56.59%{transform:translate(304px,16px)}58.2%{transform:translate(304px,96px)}60.77%{transform:translate(176px,96px)}62.7%{transform:translate(176px,0)}63.99%{transform:translate(112px,0)}65.59%{transform:translate(112px,80px)}65.92%{transform:translate(128px,80px)}66.56%{transform:translate(128px,48px)}66.88%{transform:translate(144px,48px)}67.52%{transform:translate(144px,16px)}75.56%{transform:translate(544px,16px)}75.88%{transform:translate(544px,32px)}76.53%{transform:translate(512px,32px)}76.85%{transform:translate(512px,48px)}82.96%{transform:translate(816px,48px)}83.28%{transform:translate(816px,32px)}97.75%{transform:translate(96px,32px)}98.07%{transform:translate(96px,16px)}98.39%{transform:translate(80px,16px)}99.04%{transform:translate(80px,-16px)}}:root{--cb:#1b1f230a;--cs:purple;--ce:#ebedf0;--c0:#ebedf0;--c1:#9be9a8;--c2:#40c463;--c3:#30a14e;--c4:#216e39}.c{shape-rendering:geometricPrecision;fill:var(--ce);stroke-width:1px;stroke:var(--cb);animation:none 31100ms linear infinite}.c.c0{fill:var(--c3);animation-name:c0}.c.c1{fill:var(--c1);animation-name:c1}.c.c2,.c.c3,.c.c4{fill:var(--c4);animation-name:c2}.c.c3,.c.c4{animation-name:c3}.c.c4{animation-name:c4}.c.c5{fill:var(--c1);animation-name:c5}.c.c6,.c.c7,.c.c8{fill:var(--c1);animation-name:c6}.c.c7,.c.c8{animation-name:c7}.c.c8{animation-name:c8}.c.c9{fill:var(--c3);animation-name:c9}.c.ca{fill:var(--c1);animation-name:ca}.c.cb,.c.cc{fill:var(--c2);animation-name:cb}.c.cc{animation-name:cc}.c.cd,.c.ce{fill:var(--c1);animation-name:cd}.c.ce{animation-name:ce}.c.cf,.c.cg,.c.ch{fill:var(--c1);animation-name:cf}.c.cg,.c.ch{animation-name:cg}.c.ch{animation-name:ch}.c.ci,.c.cj,.c.ck{fill:var(--c1);animation-name:ci}.c.cj,.c.ck{animation-name:cj}.c.ck{animation-name:ck}.c.cl{fill:var(--c4);animation-name:cl}.c.cm{fill:var(--c1);animation-name:cm}.c.cn{fill:var(--c2);animation-name:cn}.c.co,.c.cp,.c.cq{fill:var(--c1);animation-name:co}.c.cp,.c.cq{animation-name:cp}.c.cq{animation-name:cq}.c.cr{fill:var(--c2);animation-name:cr}.c.cs{fill:var(--c1);animation-name:cs}.c.ct{fill:var(--c2);animation-name:ct}.c.cu{fill:var(--c4);animation-name:cu}.c.cv,.c.cw{fill:var(--c1);animation-name:cv}.c.cw{animation-name:cw}.c.cx{fill:var(--c4);animation-name:cx}.c.c10,.c.cy,.c.cz{fill:var(--c1);animation-name:cy}.c.c10,.c.cz{animation-name:cz}.c.c10{animation-name:c10}.c.c11,.c.c12{fill:var(--c2);animation-name:c11}.c.c12{animation-name:c12}.c.c13{fill:var(--c1);animation-name:c13}.c.c14,.c.c15,.c.c16{fill:var(--c1);animation-name:c14}.c.c15,.c.c16{animation-name:c15}.c.c16{animation-name:c16}.c.c17{fill:var(--c2);animation-name:c17}.c.c18,.c.c19{fill:var(--c4);animation-name:c18}.c.c19{animation-name:c19}.c.c1a{fill:var(--c1);animation-name:c1a}.c.c1b,.c.c1c{fill:var(--c2);animation-name:c1b}.c.c1c{animation-name:c1c}.c.c1d,.c.c1e{fill:var(--c1);animation-name:c1d}.c.c1e{animation-name:c1e}.s,.u{animation:none linear 31100ms infinite}.u,.u.u0{transform-origin:0 0}.u{transform:scale(0,1)}.u.u0{fill:var(--c1);animation-name:u0}.u.u1{fill:var(--c2);animation-name:u1;transform-origin:515.5px 0}.u.u2{fill:var(--c3);animation-name:u2;transform-origin:681.7px 0}.u.u3{fill:var(--c4);animation-name:u3;transform-origin:715px 0}.s{shape-rendering:geometricPrecision;fill:var(--cs)}.s.s0{transform:translate(0,-16px);animation-name:s0}.s.s1{transform:translate(16px,-16px);animation-name:s1}.s.s2{transform:translate(32px,-16px);animation-name:s2}.s.s3{transform:translate(48px,-16px);animation-name:s3}</style><rect class="c" x="2" y="2" rx="2" ry="2" width="12" height="12"/><rect class="c" x="2" y="18" rx="2" ry="2" width="12" height="12"/><rect class="c" x="2" y="34" rx="2" ry="2" width="12" height="12"/><rect class="c" x="2" y="50" rx="2" ry="2" width="12" height="12"/><rect class="c" x="2" y="66" rx="2" ry="2" width="12" height="12"/><rect class="c" x="2" y="82" rx="2" ry="2" width="12" height="12"/><rect class="c" x="2" y="98" rx="2" ry="2" width="12" height="12"/><rect class="c" x="18" y="2" rx="2" ry="2" width="12" height="12"/><rect class="c" x="18" y="18" rx="2" ry="2" width="12" height="12"/><rect class="c" x="18" y="34" rx="2" ry="2" width="12" height="12"/><rect class="c" x="18" y="50" rx="2" ry="2" width="12" height="12"/><rect class="c" x="18" y="66" rx="2" ry="2" width="12" height="12"/><rect class="c" x="18" y="82" rx="2" ry="2" width="12" height="12"/><rect class="c" x="18" y="98" rx="2" ry="2" width="12" height="12"/><rect class="c" x="34" y="2" rx="2" ry="2" width="12" height="12"/><rect class="c" x="34" y="18" rx="2" ry="2" width="12" height="12"/><rect class="c" x="34" y="34" rx="2" ry="2" width="12" height="12"/><rect class="c" x="34" y="50" rx="2" ry="2" width="12" height="12"/><rect class="c" x="34" y="66" rx="2" ry="2" width="12" height="12"/><rect class="c" x="34" y="82" rx="2" ry="2" width="12" height="12"/><rect class="c" x="34" y="98" rx="2" ry="2" width="12" height="12"/><rect class="c" x="50" y="2" rx="2" ry="2" width="12" height="12"/><rect class="c" x="50" y="18" rx="2" ry="2" width="12" height="12"/><rect class="c" x="50" y="34" rx="2" ry="2" width="12" height="12"/><rect class="c" x="50" y="50" rx="2" ry="2" width="12" height="12"/><rect class="c" x="50" y="66" rx="2" ry="2" width="12" height="12"/><rect class="c" x="50" y="82" rx="2" ry="2" width="12" height="12"/><rect class="c" x="50" y="98" rx="2" ry="2" width="12" height="12"/><rect class="c" x="66" y="2" rx="2" ry="2" width="12" height="12"/><rect class="c" x="66" y="18" rx="2" ry="2" width="12" height="12"/><rect class="c" x="66" y="34" rx="2" ry="2" width="12" height="12"/><rect class="c" x="66" y="50" rx="2" ry="2" width="12" height="12"/><rect class="c" x="66" y="66" rx="2" ry="2" width="12" height="12"/><rect class="c" x="66" y="82" rx="2" ry="2" width="12" height="12"/><rect class="c" x="66" y="98" rx="2" ry="2" width="12" height="12"/><rect class="c" x="82" y="2" rx="2" ry="2" width="12" height="12"/><rect class="c" x="82" y="18" rx="2" ry="2" width="12" height="12"/><rect class="c" x="82" y="34" rx="2" ry="2" width="12" height="12"/><rect class="c" x="82" y="50" rx="2" ry="2" width="12" height="12"/><rect class="c" x="82" y="66" rx="2" ry="2" width="12" height="12"/><rect class="c" x="82" y="82" rx="2" ry="2" width="12" height="12"/><rect class="c" x="82" y="98" rx="2" ry="2" width="12" height="12"/><rect class="c" x="98" y="2" rx="2" ry="2" width="12" height="12"/><rect class="c" x="98" y="18" rx="2" ry="2" width="12" height="12"/><rect class="c" x="98" y="34" rx="2" ry="2" width="12" height="12"/><rect class="c" x="98" y="50" rx="2" ry="2" width="12" height="12"/><rect class="c" x="98" y="66" rx="2" ry="2" width="12" height="12"/><rect class="c" x="98" y="82" rx="2" ry="2" width="12" height="12"/><rect class="c" x="98" y="98" rx="2" ry="2" width="12" height="12"/><rect class="c" x="114" y="2" rx="2" ry="2" width="12" height="12"/><rect class="c" x="114" y="18" rx="2" ry="2" width="12" height="12"/><rect class="c" x="114" y="34" rx="2" ry="2" width="12" height="12"/><rect class="c" x="114" y="50" rx="2" ry="2" width="12" height="12"/><rect class="c" x="114" y="66" rx="2" ry="2" width="12" height="12"/><rect class="c c0" x="114" y="82" rx="2" ry="2" width="12" height="12"/><rect class="c c1" x="114" y="98" rx="2" ry="2" width="12" height="12"/><rect class="c" x="130" y="2" rx="2" ry="2" width="12" height="12"/><rect class="c" x="130" y="18" rx="2" ry="2" width="12" height="12"/><rect class="c" x="130" y="34" rx="2" ry="2" width="12" height="12"/><rect class="c c2" x="130" y="50" rx="2" ry="2" width="12" height="12"/><rect class="c" x="130" y="66" rx="2" ry="2" width="12" height="12"/><rect class="c c3" x="130" y="82" rx="2" ry="2" width="12" height="12"/><rect class="c" x="130" y="98" rx="2" ry="2" width="12" height="12"/><rect class="c" x="146" y="2" rx="2" ry="2" width="12" height="12"/><rect class="c c4" x="146" y="18" rx="2" ry="2" width="12" height="12"/><rect class="c" x="146" y="34" rx="2" ry="2" width="12" height="12"/><rect class="c" x="146" y="50" rx="2" ry="2" width="12" height="12"/><rect class="c" x="146" y="66" rx="2" ry="2" width="12" height="12"/><rect class="c c5" x="146" y="82" rx="2" ry="2" width="12" height="12"/><rect class="c" x="146" y="98" rx="2" ry="2" width="12" height="12"/><rect class="c" x="162" y="2" rx="2" ry="2" width="12" height="12"/><rect class="c c6" x="162" y="18" rx="2" ry="2" width="12" height="12"/><rect class="c" x="162" y="34" rx="2" ry="2" width="12" height="12"/><rect class="c c7" x="162" y="50" rx="2" ry="2" width="12" height="12"/><rect class="c" x="162" y="66" rx="2" ry="2" width="12" height="12"/><rect class="c c8" x="162" y="82" rx="2" ry="2" width="12" height="12"/><rect class="c" x="162" y="98" rx="2" ry="2" width="12" height="12"/><rect class="c c9" x="178" y="2" rx="2" ry="2" width="12" height="12"/><rect class="c" x="178" y="18" rx="2" ry="2" width="12" height="12"/><rect class="c" x="178" y="34" rx="2" ry="2" width="12" height="12"/><rect class="c ca" x="178" y="50" rx="2" ry="2" width="12" height="12"/><rect class="c" x="178" y="66" rx="2" ry="2" width="12" height="12"/><rect class="c cb" x="178" y="82" rx="2" ry="2" width="12" height="12"/><rect class="c cc" x="178" y="98" rx="2" ry="2" width="12" height="12"/><rect class="c" x="194" y="2" rx="2" ry="2" width="12" height="12"/><rect class="c cd" x="194" y="18" rx="2" ry="2" width="12" height="12"/><rect class="c ce" x="194" y="34" rx="2" ry="2" width="12" height="12"/><rect class="c cf" x="194" y="50" rx="2" ry="2" width="12" height="12"/><rect class="c" x="194" y="66" rx="2" ry="2" width="12" height="12"/><rect class="c cg" x="194" y="82" rx="2" ry="2" width="12" height="12"/><rect class="c" x="194" y="98" rx="2" ry="2" width="12" height="12"/><rect class="c" x="210" y="2" rx="2" ry="2" width="12" height="12"/><rect class="c" x="210" y="18" rx="2" ry="2" width="12" height="12"/><rect class="c" x="210" y="34" rx="2" ry="2" width="12" height="12"/><rect class="c" x="210" y="50" rx="2" ry="2" width="12" height="12"/><rect class="c ch" x="210" y="66" rx="2" ry="2" width="12" height="12"/><rect class="c" x="210" y="82" rx="2" ry="2" width="12" height="12"/><rect class="c ci" x="210" y="98" rx="2" ry="2" width="12" height="12"/><rect class="c cj" x="226" y="2" rx="2" ry="2" width="12" height="12"/><rect class="c" x="226" y="18" rx="2" ry="2" width="12" height="12"/><rect class="c" x="226" y="34" rx="2" ry="2" width="12" height="12"/><rect class="c ck" x="226" y="50" rx="2" ry="2" width="12" height="12"/><rect class="c" x="226" y="66" rx="2" ry="2" width="12" height="12"/><rect class="c" x="226" y="82" rx="2" ry="2" width="12" height="12"/><rect class="c" x="226" y="98" rx="2" ry="2" width="12" height="12"/><rect class="c" x="242" y="2" rx="2" ry="2" width="12" height="12"/><rect class="c cl" x="242" y="18" rx="2" ry="2" width="12" height="12"/><rect class="c cm" x="242" y="34" rx="2" ry="2" width="12" height="12"/><rect class="c" x="242" y="50" rx="2" ry="2" width="12" height="12"/><rect class="c" x="242" y="66" rx="2" ry="2" width="12" height="12"/><rect class="c" x="242" y="82" rx="2" ry="2" width="12" height="12"/><rect class="c" x="242" y="98" rx="2" ry="2" width="12" height="12"/><rect class="c" x="258" y="2" rx="2" ry="2" width="12" height="12"/><rect class="c" x="258" y="18" rx="2" ry="2" width="12" height="12"/><rect class="c" x="258" y="34" rx="2" ry="2" width="12" height="12"/><rect class="c" x="258" y="50" rx="2" ry="2" width="12" height="12"/><rect class="c" x="258" y="66" rx="2" ry="2" width="12" height="12"/><rect class="c" x="258" y="82" rx="2" ry="2" width="12" height="12"/><rect class="c" x="258" y="98" rx="2" ry="2" width="12" height="12"/><rect class="c" x="274" y="2" rx="2" ry="2" width="12" height="12"/><rect class="c" x="274" y="18" rx="2" ry="2" width="12" height="12"/><rect class="c" x="274" y="34" rx="2" ry="2" width="12" height="12"/><rect class="c" x="274" y="50" rx="2" ry="2" width="12" height="12"/><rect class="c" x="274" y="66" rx="2" ry="2" width="12" height="12"/><rect class="c" x="274" y="82" rx="2" ry="2" width="12" height="12"/><rect class="c" x="274" y="98" rx="2" ry="2" width="12" height="12"/><rect class="c" x="290" y="2" rx="2" ry="2" width="12" height="12"/><rect class="c" x="290" y="18" rx="2" ry="2" width="12" height="12"/><rect class="c" x="290" y="34" rx="2" ry="2" width="12" height="12"/><rect class="c" x="290" y="50" rx="2" ry="2" width="12" height="12"/><rect class="c" x="290" y="66" rx="2" ry="2" width="12" height="12"/><rect class="c" x="290" y="82" rx="2" ry="2" width="12" height="12"/><rect class="c" x="290" y="98" rx="2" ry="2" width="12" height="12"/><rect class="c" x="306" y="2" rx="2" ry="2" width="12" height="12"/><rect class="c" x="306" y="18" rx="2" ry="2" width="12" height="12"/><rect class="c" x="306" y="34" rx="2" ry="2" width="12" height="12"/><rect class="c" x="306" y="50" rx="2" ry="2" width="12" height="12"/><rect class="c" x="306" y="66" rx="2" ry="2" width="12" height="12"/><rect class="c" x="306" y="82" rx="2" ry="2" width="12" height="12"/><rect class="c cn" x="306" y="98" rx="2" ry="2" width="12" height="12"/><rect class="c" x="322" y="2" rx="2" ry="2" width="12" height="12"/><rect class="c" x="322" y="18" rx="2" ry="2" width="12" height="12"/><rect class="c" x="322" y="34" rx="2" ry="2" width="12" height="12"/><rect class="c" x="322" y="50" rx="2" ry="2" width="12" height="12"/><rect class="c" x="322" y="66" rx="2" ry="2" width="12" height="12"/><rect class="c" x="322" y="82" rx="2" ry="2" width="12" height="12"/><rect class="c" x="322" y="98" rx="2" ry="2" width="12" height="12"/><rect class="c" x="338" y="2" rx="2" ry="2" width="12" height="12"/><rect class="c" x="338" y="18" rx="2" ry="2" width="12" height="12"/><rect class="c" x="338" y="34" rx="2" ry="2" width="12" height="12"/><rect class="c co" x="338" y="50" rx="2" ry="2" width="12" height="12"/><rect class="c cp" x="338" y="66" rx="2" ry="2" width="12" height="12"/><rect class="c" x="338" y="82" rx="2" ry="2" width="12" height="12"/><rect class="c" x="338" y="98" rx="2" ry="2" width="12" height="12"/><rect class="c" x="354" y="2" rx="2" ry="2" width="12" height="12"/><rect class="c" x="354" y="18" rx="2" ry="2" width="12" height="12"/><rect class="c" x="354" y="34" rx="2" ry="2" width="12" height="12"/><rect class="c" x="354" y="50" rx="2" ry="2" width="12" height="12"/><rect class="c" x="354" y="66" rx="2" ry="2" width="12" height="12"/><rect class="c cq" x="354" y="82" rx="2" ry="2" width="12" height="12"/><rect class="c" x="354" y="98" rx="2" ry="2" width="12" height="12"/><rect class="c" x="370" y="2" rx="2" ry="2" width="12" height="12"/><rect class="c" x="370" y="18" rx="2" ry="2" width="12" height="12"/><rect class="c" x="370" y="34" rx="2" ry="2" width="12" height="12"/><rect class="c" x="370" y="50" rx="2" ry="2" width="12" height="12"/><rect class="c" x="370" y="66" rx="2" ry="2" width="12" height="12"/><rect class="c" x="370" y="82" rx="2" ry="2" width="12" height="12"/><rect class="c" x="370" y="98" rx="2" ry="2" width="12" height="12"/><rect class="c" x="386" y="2" rx="2" ry="2" width="12" height="12"/><rect class="c cr" x="386" y="18" rx="2" ry="2" width="12" height="12"/><rect class="c" x="386" y="34" rx="2" ry="2" width="12" height="12"/><rect class="c" x="386" y="50" rx="2" ry="2" width="12" height="12"/><rect class="c" x="386" y="66" rx="2" ry="2" width="12" height="12"/><rect class="c" x="386" y="82" rx="2" ry="2" width="12" height="12"/><rect class="c" x="386" y="98" rx="2" ry="2" width="12" height="12"/><rect class="c" x="402" y="2" rx="2" ry="2" width="12" height="12"/><rect class="c" x="402" y="18" rx="2" ry="2" width="12" height="12"/><rect class="c" x="402" y="34" rx="2" ry="2" width="12" height="12"/><rect class="c" x="402" y="50" rx="2" ry="2" width="12" height="12"/><rect class="c" x="402" y="66" rx="2" ry="2" width="12" height="12"/><rect class="c" x="402" y="82" rx="2" ry="2" width="12" height="12"/><rect class="c" x="402" y="98" rx="2" ry="2" width="12" height="12"/><rect class="c" x="418" y="2" rx="2" ry="2" width="12" height="12"/><rect class="c" x="418" y="18" rx="2" ry="2" width="12" height="12"/><rect class="c" x="418" y="34" rx="2" ry="2" width="12" height="12"/><rect class="c" x="418" y="50" rx="2" ry="2" width="12" height="12"/><rect class="c" x="418" y="66" rx="2" ry="2" width="12" height="12"/><rect class="c" x="418" y="82" rx="2" ry="2" width="12" height="12"/><rect class="c" x="418" y="98" rx="2" ry="2" width="12" height="12"/><rect class="c" x="434" y="2" rx="2" ry="2" width="12" height="12"/><rect class="c" x="434" y="18" rx="2" ry="2" width="12" height="12"/><rect class="c" x="434" y="34" rx="2" ry="2" width="12" height="12"/><rect class="c" x="434" y="50" rx="2" ry="2" width="12" height="12"/><rect class="c" x="434" y="66" rx="2" ry="2" width="12" height="12"/><rect class="c" x="434" y="82" rx="2" ry="2" width="12" height="12"/><rect class="c" x="434" y="98" rx="2" ry="2" width="12" height="12"/><rect class="c" x="450" y="2" rx="2" ry="2" width="12" height="12"/><rect class="c" x="450" y="18" rx="2" ry="2" width="12" height="12"/><rect class="c" x="450" y="34" rx="2" ry="2" width="12" height="12"/><rect class="c" x="450" y="50" rx="2" ry="2" width="12" height="12"/><rect class="c" x="450" y="66" rx="2" ry="2" width="12" height="12"/><rect class="c" x="450" y="82" rx="2" ry="2" width="12" height="12"/><rect class="c" x="450" y="98" rx="2" ry="2" width="12" height="12"/><rect class="c" x="466" y="2" rx="2" ry="2" width="12" height="12"/><rect class="c cs" x="466" y="18" rx="2" ry="2" width="12" height="12"/><rect class="c" x="466" y="34" rx="2" ry="2" width="12" height="12"/><rect class="c" x="466" y="50" rx="2" ry="2" width="12" height="12"/><rect class="c" x="466" y="66" rx="2" ry="2" width="12" height="12"/><rect class="c" x="466" y="82" rx="2" ry="2" width="12" height="12"/><rect class="c" x="466" y="98" rx="2" ry="2" width="12" height="12"/><rect class="c" x="482" y="2" rx="2" ry="2" width="12" height="12"/><rect class="c" x="482" y="18" rx="2" ry="2" width="12" height="12"/><rect class="c" x="482" y="34" rx="2" ry="2" width="12" height="12"/><rect class="c" x="482" y="50" rx="2" ry="2" width="12" height="12"/><rect class="c" x="482" y="66" rx="2" ry="2" width="12" height="12"/><rect class="c ct" x="482" y="82" rx="2" ry="2" width="12" height="12"/><rect class="c" x="482" y="98" rx="2" ry="2" width="12" height="12"/><rect class="c" x="498" y="2" rx="2" ry="2" width="12" height="12"/><rect class="c" x="498" y="18" rx="2" ry="2" width="12" height="12"/><rect class="c" x="498" y="34" rx="2" ry="2" width="12" height="12"/><rect class="c" x="498" y="50" rx="2" ry="2" width="12" height="12"/><rect class="c" x="498" y="66" rx="2" ry="2" width="12" height="12"/><rect class="c" x="498" y="82" rx="2" ry="2" width="12" height="12"/><rect class="c" x="498" y="98" rx="2" ry="2" width="12" height="12"/><rect class="c" x="514" y="2" rx="2" ry="2" width="12" height="12"/><rect class="c" x="514" y="18" rx="2" ry="2" width="12" height="12"/><rect class="c" x="514" y="34" rx="2" ry="2" width="12" height="12"/><rect class="c cu" x="514" y="50" rx="2" ry="2" width="12" height="12"/><rect class="c cv" x="514" y="66" rx="2" ry="2" width="12" height="12"/><rect class="c" x="514" y="82" rx="2" ry="2" width="12" height="12"/><rect class="c" x="514" y="98" rx="2" ry="2" width="12" height="12"/><rect class="c" x="530" y="2" rx="2" ry="2" width="12" height="12"/><rect class="c" x="530" y="18" rx="2" ry="2" width="12" height="12"/><rect class="c" x="530" y="34" rx="2" ry="2" width="12" height="12"/><rect class="c" x="530" y="50" rx="2" ry="2" width="12" height="12"/><rect class="c" x="530" y="66" rx="2" ry="2" width="12" height="12"/><rect class="c" x="530" y="82" rx="2" ry="2" width="12" height="12"/><rect class="c" x="530" y="98" rx="2" ry="2" width="12" height="12"/><rect class="c cw" x="546" y="2" rx="2" ry="2" width="12" height="12"/><rect class="c cx" x="546" y="18" rx="2" ry="2" width="12" height="12"/><rect class="c cy" x="546" y="34" rx="2" ry="2" width="12" height="12"/><rect class="c" x="546" y="50" rx="2" ry="2" width="12" height="12"/><rect class="c" x="546" y="66" rx="2" ry="2" width="12" height="12"/><rect class="c" x="546" y="82" rx="2" ry="2" width="12" height="12"/><rect class="c" x="546" y="98" rx="2" ry="2" width="12" height="12"/><rect class="c" x="562" y="2" rx="2" ry="2" width="12" height="12"/><rect class="c" x="562" y="18" rx="2" ry="2" width="12" height="12"/><rect class="c" x="562" y="34" rx="2" ry="2" width="12" height="12"/><rect class="c" x="562" y="50" rx="2" ry="2" width="12" height="12"/><rect class="c" x="562" y="66" rx="2" ry="2" width="12" height="12"/><rect class="c" x="562" y="82" rx="2" ry="2" width="12" height="12"/><rect class="c" x="562" y="98" rx="2" ry="2" width="12" height="12"/><rect class="c" x="578" y="2" rx="2" ry="2" width="12" height="12"/><rect class="c" x="578" y="18" rx="2" ry="2" width="12" height="12"/><rect class="c" x="578" y="34" rx="2" ry="2" width="12" height="12"/><rect class="c" x="578" y="50" rx="2" ry="2" width="12" height="12"/><rect class="c" x="578" y="66" rx="2" ry="2" width="12" height="12"/><rect class="c cz" x="578" y="82" rx="2" ry="2" width="12" height="12"/><rect class="c" x="578" y="98" rx="2" ry="2" width="12" height="12"/><rect class="c c10" x="594" y="2" rx="2" ry="2" width="12" height="12"/><rect class="c" x="594" y="18" rx="2" ry="2" width="12" height="12"/><rect class="c" x="594" y="34" rx="2" ry="2" width="12" height="12"/><rect class="c" x="594" y="50" rx="2" ry="2" width="12" height="12"/><rect class="c" x="594" y="66" rx="2" ry="2" width="12" height="12"/><rect class="c c11" x="594" y="82" rx="2" ry="2" width="12" height="12"/><rect class="c" x="594" y="98" rx="2" ry="2" width="12" height="12"/><rect class="c" x="610" y="2" rx="2" ry="2" width="12" height="12"/><rect class="c" x="610" y="18" rx="2" ry="2" width="12" height="12"/><rect class="c" x="610" y="34" rx="2" ry="2" width="12" height="12"/><rect class="c" x="610" y="50" rx="2" ry="2" width="12" height="12"/><rect class="c" x="610" y="66" rx="2" ry="2" width="12" height="12"/><rect class="c" x="610" y="82" rx="2" ry="2" width="12" height="12"/><rect class="c" x="610" y="98" rx="2" ry="2" width="12" height="12"/><rect class="c" x="626" y="2" rx="2" ry="2" width="12" height="12"/><rect class="c" x="626" y="18" rx="2" ry="2" width="12" height="12"/><rect class="c" x="626" y="34" rx="2" ry="2" width="12" height="12"/><rect class="c" x="626" y="50" rx="2" ry="2" width="12" height="12"/><rect class="c" x="626" y="66" rx="2" ry="2" width="12" height="12"/><rect class="c" x="626" y="82" rx="2" ry="2" width="12" height="12"/><rect class="c" x="626" y="98" rx="2" ry="2" width="12" height="12"/><rect class="c" x="642" y="2" rx="2" ry="2" width="12" height="12"/><rect class="c" x="642" y="18" rx="2" ry="2" width="12" height="12"/><rect class="c c12" x="642" y="34" rx="2" ry="2" width="12" height="12"/><rect class="c c13" x="642" y="50" rx="2" ry="2" width="12" height="12"/><rect class="c c14" x="642" y="66" rx="2" ry="2" width="12" height="12"/><rect class="c c15" x="642" y="82" rx="2" ry="2" width="12" height="12"/><rect class="c" x="642" y="98" rx="2" ry="2" width="12" height="12"/><rect class="c" x="658" y="2" rx="2" ry="2" width="12" height="12"/><rect class="c" x="658" y="18" rx="2" ry="2" width="12" height="12"/><rect class="c" x="658" y="34" rx="2" ry="2" width="12" height="12"/><rect class="c" x="658" y="50" rx="2" ry="2" width="12" height="12"/><rect class="c" x="658" y="66" rx="2" ry="2" width="12" height="12"/><rect class="c" x="658" y="82" rx="2" ry="2" width="12" height="12"/><rect class="c" x="658" y="98" rx="2" ry="2" width="12" height="12"/><rect class="c" x="674" y="2" rx="2" ry="2" width="12" height="12"/><rect class="c" x="674" y="18" rx="2" ry="2" width="12" height="12"/><rect class="c" x="674" y="34" rx="2" ry="2" width="12" height="12"/><rect class="c" x="674" y="50" rx="2" ry="2" width="12" height="12"/><rect class="c" x="674" y="66" rx="2" ry="2" width="12" height="12"/><rect class="c c16" x="674" y="82" rx="2" ry="2" width="12" height="12"/><rect class="c" x="674" y="98" rx="2" ry="2" width="12" height="12"/><rect class="c" x="690" y="2" rx="2" ry="2" width="12" height="12"/><rect class="c" x="690" y="18" rx="2" ry="2" width="12" height="12"/><rect class="c" x="690" y="34" rx="2" ry="2" width="12" height="12"/><rect class="c" x="690" y="50" rx="2" ry="2" width="12" height="12"/><rect class="c" x="690" y="66" rx="2" ry="2" width="12" height="12"/><rect class="c" x="690" y="82" rx="2" ry="2" width="12" height="12"/><rect class="c" x="690" y="98" rx="2" ry="2" width="12" height="12"/><rect class="c" x="706" y="2" rx="2" ry="2" width="12" height="12"/><rect class="c" x="706" y="18" rx="2" ry="2" width="12" height="12"/><rect class="c" x="706" y="34" rx="2" ry="2" width="12" height="12"/><rect class="c" x="706" y="50" rx="2" ry="2" width="12" height="12"/><rect class="c" x="706" y="66" rx="2" ry="2" width="12" height="12"/><rect class="c" x="706" y="82" rx="2" ry="2" width="12" height="12"/><rect class="c" x="706" y="98" rx="2" ry="2" width="12" height="12"/><rect class="c" x="722" y="2" rx="2" ry="2" width="12" height="12"/><rect class="c" x="722" y="18" rx="2" ry="2" width="12" height="12"/><rect class="c" x="722" y="34" rx="2" ry="2" width="12" height="12"/><rect class="c" x="722" y="50" rx="2" ry="2" width="12" height="12"/><rect class="c" x="722" y="66" rx="2" ry="2" width="12" height="12"/><rect class="c" x="722" y="82" rx="2" ry="2" width="12" height="12"/><rect class="c" x="722" y="98" rx="2" ry="2" width="12" height="12"/><rect class="c" x="738" y="2" rx="2" ry="2" width="12" height="12"/><rect class="c" x="738" y="18" rx="2" ry="2" width="12" height="12"/><rect class="c" x="738" y="34" rx="2" ry="2" width="12" height="12"/><rect class="c" x="738" y="50" rx="2" ry="2" width="12" height="12"/><rect class="c" x="738" y="66" rx="2" ry="2" width="12" height="12"/><rect class="c" x="738" y="82" rx="2" ry="2" width="12" height="12"/><rect class="c" x="738" y="98" rx="2" ry="2" width="12" height="12"/><rect class="c" x="754" y="2" rx="2" ry="2" width="12" height="12"/><rect class="c" x="754" y="18" rx="2" ry="2" width="12" height="12"/><rect class="c" x="754" y="34" rx="2" ry="2" width="12" height="12"/><rect class="c" x="754" y="50" rx="2" ry="2" width="12" height="12"/><rect class="c" x="754" y="66" rx="2" ry="2" width="12" height="12"/><rect class="c" x="754" y="82" rx="2" ry="2" width="12" height="12"/><rect class="c" x="754" y="98" rx="2" ry="2" width="12" height="12"/><rect class="c" x="770" y="2" rx="2" ry="2" width="12" height="12"/><rect class="c" x="770" y="18" rx="2" ry="2" width="12" height="12"/><rect class="c" x="770" y="34" rx="2" ry="2" width="12" height="12"/><rect class="c" x="770" y="50" rx="2" ry="2" width="12" height="12"/><rect class="c c17" x="770" y="66" rx="2" ry="2" width="12" height="12"/><rect class="c" x="770" y="82" rx="2" ry="2" width="12" height="12"/><rect class="c" x="770" y="98" rx="2" ry="2" width="12" height="12"/><rect class="c" x="786" y="2" rx="2" ry="2" width="12" height="12"/><rect class="c" x="786" y="18" rx="2" ry="2" width="12" height="12"/><rect class="c" x="786" y="34" rx="2" ry="2" width="12" height="12"/><rect class="c" x="786" y="50" rx="2" ry="2" width="12" height="12"/><rect class="c" x="786" y="66" rx="2" ry="2" width="12" height="12"/><rect class="c" x="786" y="82" rx="2" ry="2" width="12" height="12"/><rect class="c" x="786" y="98" rx="2" ry="2" width="12" height="12"/><rect class="c" x="802" y="2" rx="2" ry="2" width="12" height="12"/><rect class="c" x="802" y="18" rx="2" ry="2" width="12" height="12"/><rect class="c" x="802" y="34" rx="2" ry="2" width="12" height="12"/><rect class="c" x="802" y="50" rx="2" ry="2" width="12" height="12"/><rect class="c" x="802" y="66" rx="2" ry="2" width="12" height="12"/><rect class="c" x="802" y="82" rx="2" ry="2" width="12" height="12"/><rect class="c" x="802" y="98" rx="2" ry="2" width="12" height="12"/><rect class="c" x="818" y="2" rx="2" ry="2" width="12" height="12"/><rect class="c" x="818" y="18" rx="2" ry="2" width="12" height="12"/><rect class="c c18" x="818" y="34" rx="2" ry="2" width="12" height="12"/><rect class="c c19" x="818" y="50" rx="2" ry="2" width="12" height="12"/><rect class="c c1a" x="818" y="66" rx="2" ry="2" width="12" height="12"/><rect class="c c1b" x="818" y="82" rx="2" ry="2" width="12" height="12"/><rect class="c" x="818" y="98" rx="2" ry="2" width="12" height="12"/><rect class="c" x="834" y="2" rx="2" ry="2" width="12" height="12"/><rect class="c c1c" x="834" y="18" rx="2" ry="2" width="12" height="12"/><rect class="c c1d" x="834" y="34" rx="2" ry="2" width="12" height="12"/><rect class="c c1e" x="834" y="50" rx="2" ry="2" width="12" height="12"/><rect class="u u0" height="12" width="516.1" x="0.0" y="144"/><rect class="u u1" height="12" width="166.9" x="515.5" y="144"/><rect class="u u2" height="12" width="33.9" x="681.7" y="144"/><rect class="u u3" height="12" width="133.6" x="715.0" y="144"/><rect class="s s0" x="0.8" y="0.8" width="14.4" height="14.4" rx="4.5" ry="4.5"/><rect class="s s1" x="1.8" y="1.8" width="12.3" height="12.3" rx="4.1" ry="4.1"/><rect class="s s2" x="2.6" y="2.6" width="10.8" height="10.8" rx="3.6" ry="3.6"/><rect class="s s3" x="3.0" y="3.0" width="9.9" height="9.9" rx="3.3" ry="3.3"/></svg>